<svg width="198" height="48" viewBox="0 0 198 48" fill="none" xmlns="http://www.w3.org/2000/svg">
<g clip-path="url(#clip0_1_5635)">
<path fill-rule="evenodd" clip-rule="evenodd" d="M14.5503 0L19.1946 2.54232L13.6423 17.1562L0 9.5201L1.92944 4.5898L6.34219 2.98269L10.1375 1.60711L14.5503 0ZM16.8197 3.50987L13.5782 12.8938L14.6814 4.25441L13.0879 2.58374L14.3772 2.01172L16.8197 3.50987Z" fill="white"/>
<path fill-rule="evenodd" clip-rule="evenodd" d="M8.9071 36.9634H19.7801V35.8012L19.149 35.6831C17.6191 35.4153 17.5419 34.9113 17.5419 33.0137V18.7676C16.0892 18.7676 11.3813 19.503 8.78906 20.1976L8.9071 21.3598H9.96943C11.1453 21.3598 11.1453 23.1803 11.1453 26.0813V33.0091C11.1453 34.9068 11.0681 35.4107 9.5336 35.6786L8.9071 35.7966V36.9588V36.9634Z" fill="white"/>
<path fill-rule="evenodd" clip-rule="evenodd" d="M21.5061 36.9634H32.0658V35.8012L31.4393 35.6831C30.2226 35.4516 30.1454 34.9113 30.1454 33.0137V22.3314C30.4587 22.0227 31.0852 21.5596 32.2247 21.5596C35.6795 21.5596 35.6795 24.6558 35.6795 27.0528V33.0137C35.6795 34.9113 35.6024 35.4924 34.4629 35.6831L33.8363 35.8012V36.9634H44.3144V35.8012L43.6879 35.6831C42.1579 35.4153 42.0762 34.9113 42.0762 33.0137V24.96C42.0762 18.8448 37.2095 18.7676 36.4241 18.7676C33.1645 18.7676 31.4393 19.8889 30.1454 20.8559V18.7676C28.6927 18.7676 23.8259 19.3078 21.3926 20.1976L21.5106 21.3598H22.5684C23.7488 21.3598 23.7488 23.1803 23.7488 26.0813V33.0091C23.7488 34.9068 23.6671 35.4107 22.1371 35.6786L21.5106 35.7966V36.9588L21.5061 36.9634Z" fill="white"/>
<path fill-rule="evenodd" clip-rule="evenodd" d="M60.0903 34.5255C59.6591 34.6435 58.9917 34.875 58.2472 34.875C54.6743 34.875 54.6334 31.5065 54.6334 27.4433V21.0966C55.891 21.0602 57.7342 20.865 59.0326 20.6698V19.662C57.4209 19.5485 56.3631 19.5076 54.6334 19.3532C54.6743 18.3091 55.0284 15.0177 55.1464 14.205L54.6334 13.8555C52.0457 14.8996 50.5112 15.7123 48.2368 17.106V19.3487C47.0609 19.4667 45.6082 19.5031 45.2949 19.6211V20.6289C46.1166 20.8242 47.2561 20.9377 48.2368 21.092V32.0467C48.2368 37.5399 52.477 37.5399 53.0672 37.5399C57.3846 37.5399 59.2278 36.2234 60.3673 35.5242L60.0903 34.5164V34.5255Z" fill="white"/>
<path fill-rule="evenodd" clip-rule="evenodd" d="M78.4525 33.7495C77.826 34.0219 76.4913 34.7573 74.2122 34.7573C69.3455 34.7165 68.1697 31.5431 67.7747 29.1052C71.4656 28.3289 75.4289 27.2847 78.6477 25.9318C78.4525 23.4531 77.1541 18.7725 70.6802 18.7725C65.0281 18.7725 60.4746 21.9095 60.4746 28.3334C60.4746 34.7573 64.9101 37.5448 70.603 37.5448C74.9976 37.5448 77.5899 35.7243 78.7294 34.721L78.4525 33.754V33.7495ZM67.3434 25.0783C67.3434 23.1807 67.6567 20.5112 69.7359 20.5112C72.3282 20.5112 72.6823 25.1192 72.7595 26.1997C70.8346 26.7036 69.3818 26.8943 67.4206 27.1304C67.4206 26.4312 67.3434 25.7775 67.3434 25.0783Z" fill="white"/>
<path fill-rule="evenodd" clip-rule="evenodd" d="M80.3414 36.9634H91.2144V35.8012L90.5833 35.6831C89.0534 35.4153 88.9762 34.9113 88.9762 33.0137V22.8716C89.2895 22.9079 89.6027 22.9897 89.916 23.0668C91.8 23.5299 92.7806 24.6558 93.9201 24.6558C95.4909 23.766 96.3944 22.6038 96.7076 21.1692C96.2763 20.3202 95.4909 18.7676 93.2936 18.7676C91.0963 18.7676 89.7207 20.47 88.6993 21.4779C88.5812 20.1613 88.5449 19.8117 88.268 18.7676C85.4033 19.2715 83.6736 19.6574 80.0645 20.7016L80.3777 21.8638H81.4764C82.575 21.8638 82.575 23.2984 82.575 25.8906V33.0137C82.575 34.9113 82.4978 35.4153 80.9633 35.6831L80.3368 35.8012V36.9634H80.3414Z" fill="white"/>
<path fill-rule="evenodd" clip-rule="evenodd" d="M99.4141 37.5447H100.985L102.124 36.3462C103.577 37.0045 104.912 37.5447 108.485 37.5447C113.429 37.5447 119.199 34.7573 119.199 27.6342C119.199 21.3647 114.686 18.7679 110.287 18.7679C109.27 18.7679 108.367 18.9222 107.659 19.0766C106.914 19.2718 106.324 19.4625 105.815 19.6168V9.08887C104.363 9.08887 98.7468 10.0559 97.0625 10.5189L97.1805 11.6811H98.2383C99.4141 11.6811 99.4141 12.8797 99.4141 14.8545V37.5357V37.5447ZM105.811 20.9379H106.437C110.56 20.9379 112.326 25.1554 112.326 29.5682C112.326 32.7416 111.658 35.8014 108.521 35.8014C106.991 35.8014 106.242 34.9116 105.811 34.2897V20.9379Z" fill="white"/>
<path fill-rule="evenodd" clip-rule="evenodd" d="M121.147 37.1681H132.02V36.0059L131.393 35.8878C129.863 35.62 129.786 35.1161 129.786 33.2184V9.29785C128.333 9.29785 123.898 10.0333 121.033 10.7324L121.151 11.8947H122.209C123.385 11.8947 123.385 13.7151 123.385 16.6161V33.2229C123.385 35.1206 123.308 35.6245 121.778 35.8924L121.151 36.0104V37.1726L121.147 37.1681Z" fill="white"/>
<path fill-rule="evenodd" clip-rule="evenodd" d="M144.291 37.5448C149.63 37.5448 154.969 35.066 154.969 27.9838C154.969 22.6813 151.432 18.7725 144.686 18.7725C139.347 18.7725 134.049 21.1332 134.049 28.2562C134.049 35.3793 138.879 37.5448 144.295 37.5448M141.195 27.094C141.195 24.5018 141.708 20.5158 144.454 20.5158C147.201 20.5158 147.832 25.1601 147.832 28.4515C147.832 31.4705 147.596 35.806 144.613 35.806C141.866 35.806 141.199 30.6987 141.199 27.0986" fill="white"/>
<path fill-rule="evenodd" clip-rule="evenodd" d="M174.24 34.4483C173.455 34.6026 172.551 34.757 171.021 34.757C167.294 34.757 164.075 32.2782 164.075 26.7804C164.075 23.489 165.133 20.9376 167.176 20.9376C169.219 20.9376 170.985 23.3755 171.534 24.111H172.124C173.495 22.9125 174.008 21.8638 174.245 20.3157C173.772 20.2794 173.536 18.7676 168.202 18.7676C159.567 18.7676 157.211 25.8906 157.211 28.442C157.211 30.031 157.211 37.5399 167.689 37.5399C171.416 37.5399 174.245 35.6468 174.676 35.3335L174.245 34.4437L174.24 34.4483Z" fill="white"/>
<path fill-rule="evenodd" clip-rule="evenodd" d="M175.601 36.964H186.474V35.8018L185.848 35.6837C184.318 35.4159 184.236 34.912 184.236 33.0143V28.4881C184.631 28.4881 185.021 28.6787 185.098 28.7196C186.079 29.6503 186.079 30.8851 188.472 34.5261C189.806 36.5418 190.946 36.964 193.851 36.964H197.896V35.8018C195.931 35.8018 193.03 30.304 190.201 25.1649C193.497 22.164 193.81 21.0472 196.285 20.6659L197.029 20.5524V19.3902H187.255V20.5524L188.472 20.8202C188.98 20.9337 189.729 21.1653 189.729 21.6283C189.729 22.7814 186.901 25.5099 186.351 26.0138C185.53 26.8219 184.858 26.7447 184.231 26.7447V9.09375C182.779 9.09375 178.343 9.79289 175.479 10.5329L175.597 11.6996H176.659C177.835 11.6996 177.835 13.5247 177.835 16.4393V33.0188C177.835 34.9165 177.758 35.4204 176.228 35.6883L175.601 35.8063V36.9685V36.964Z" fill="white"/>
<path d="M60.3672 47.9003V41.7578H61.5521V46.8652H63.5496V47.9003H60.3672Z" fill="white"/>
<path d="M67.7207 48.0001C65.7776 48.0001 65.3418 46.9423 65.3418 45.7711V41.7578H66.5267V45.6984C66.5267 46.4702 66.7809 47.0195 67.8024 47.0195C68.7149 47.0195 69.0963 46.6382 69.0963 45.5895V41.7578H70.2721V45.5168C70.2721 47.192 69.3414 48.0001 67.7207 48.0001Z" fill="white"/>
<path d="M76.1296 47.9003L74.8085 45.6439L73.4829 47.9003H72.0801L74.0413 44.7632L72.2026 41.7578H73.5782L74.8267 43.887L76.0661 41.7578H77.4144L75.5985 44.7541L77.6233 47.9003H76.1296Z" fill="white"/>
<path d="M81.7637 48.0001C79.8206 48.0001 79.3848 46.9423 79.3848 45.7711V41.7578H80.5697V45.6984C80.5697 46.4702 80.8239 47.0195 81.8454 47.0195C82.7579 47.0195 83.1392 46.6382 83.1392 45.5895V41.7578H84.3151V45.5168C84.3151 47.192 83.3844 48.0001 81.7637 48.0001Z" fill="white"/>
<path d="M89.839 47.9004L88.1229 45.3627H88.0775V47.9004H86.8926V41.758C87.3738 41.7308 87.9504 41.7217 88.6631 41.7217C90.0205 41.7217 90.8967 42.1938 90.8967 43.4514C90.8967 44.3639 90.2566 45.0176 89.3305 45.1629C89.503 45.3899 89.6755 45.626 89.8299 45.8348L91.3053 47.9004H89.839ZM88.5451 42.6841C88.3726 42.6841 88.2001 42.6932 88.082 42.7114V44.4865C88.1637 44.4955 88.3272 44.5046 88.5088 44.5046C89.217 44.5046 89.6574 44.1414 89.6574 43.5649C89.6574 42.9883 89.2942 42.6841 88.5451 42.6841Z" fill="white"/>
<path d="M95.4731 45.7257V47.9003H94.2882V45.7347L92.3633 41.7578H93.6571L94.4698 43.5238C94.6332 43.887 94.7694 44.223 94.8874 44.5453H94.9056C95.0327 44.1912 95.2143 43.7962 95.4005 43.4058L96.1768 41.7578H97.4343L95.4731 45.7257Z" fill="white"/>
<path d="M107.123 43.0335C106.629 42.8428 106.066 42.7248 105.494 42.7248C104.281 42.7248 103.405 43.4875 103.405 44.8631C103.405 46.166 104.118 46.9287 105.366 46.9287C105.657 46.9287 105.911 46.8924 106.152 46.8197V44.6815H107.337V47.6142C106.728 47.8594 105.97 47.9956 105.23 47.9956C103.278 47.9956 102.125 46.847 102.125 44.972C102.125 43.097 103.437 41.667 105.571 41.667C106.184 41.667 106.783 41.7759 107.314 41.9303L107.132 43.029L107.123 43.0335Z" fill="white"/>
<path d="M113.433 47.9003L113.002 46.6427H110.677L110.251 47.9003H109.057L111.209 41.7578H112.548L114.745 47.9003H113.433ZM112.121 44.0958C112.003 43.7599 111.912 43.4603 111.84 43.1107H111.83C111.758 43.4285 111.658 43.7826 111.54 44.1412L110.982 45.7075H112.698L112.126 44.0958H112.121Z" fill="white"/>
<path d="M122.485 47.9003L122.049 44.9675C121.958 44.3864 121.904 43.9279 121.858 43.5011H121.84C121.758 43.8915 121.658 44.3183 121.504 44.8131L120.528 47.9003H119.352L118.412 45.0492C118.249 44.5498 118.095 43.9914 118.022 43.5011H118.004C117.967 44.0459 117.904 44.5271 117.831 45.0674L117.486 47.9003H116.283L117.232 41.7578H118.617L119.647 44.9176C119.793 45.3534 119.901 45.7756 119.983 46.2114H120.001C120.092 45.7393 120.192 45.3942 120.346 44.9357L121.404 41.7578H122.78L123.738 47.9003H122.489H122.485Z" fill="white"/>
<path d="M127.017 41.7578H125.832V47.9003H127.017V41.7578Z" fill="white"/>
<path d="M133.209 47.8999L131.402 44.7946C131.139 44.3316 130.921 43.873 130.735 43.4735C130.771 44.0002 130.789 44.9672 130.789 45.7026V47.8954H129.641V41.7529H131.18L132.896 44.6811C133.177 45.1533 133.422 45.6663 133.649 46.1294C133.604 45.5119 133.586 44.4178 133.586 43.6642V41.7529H134.734V47.8954H133.204L133.209 47.8999Z" fill="white"/>
<path d="M141.89 43.0335C141.399 42.8428 140.832 42.7248 140.26 42.7248C139.048 42.7248 138.172 43.4875 138.172 44.8631C138.172 46.166 138.884 46.9287 140.133 46.9287C140.423 46.9287 140.678 46.8924 140.918 46.8197V44.6815H142.103V47.6142C141.49 47.8594 140.737 47.9956 139.997 47.9956C138.044 47.9956 136.887 46.847 136.887 44.972C136.887 43.097 138.199 41.667 140.332 41.667C140.941 41.667 141.545 41.7759 142.076 41.9303L141.894 43.029L141.89 43.0335Z" fill="white"/>
<path d="M149.27 45.7531C149.161 45.7531 149.016 45.7531 148.87 45.7349V47.9004H147.686V41.758C148.189 41.7308 148.734 41.7217 149.338 41.7217C150.85 41.7217 151.681 42.4208 151.681 43.6239C151.681 44.8269 150.768 45.7531 149.274 45.7531M149.293 42.6841C149.147 42.6841 149.011 42.6841 148.875 42.6932V44.7407C148.993 44.7589 149.111 44.7679 149.22 44.7679C149.951 44.7588 150.45 44.3593 150.45 43.692C150.45 43.0746 150.096 42.6796 149.293 42.6796" fill="white"/>
<path d="M156.648 47.9004L154.931 45.3627H154.886V47.9004H153.701V41.758C154.182 41.7308 154.759 41.7217 155.467 41.7217C156.825 41.7217 157.701 42.1938 157.701 43.4514C157.701 44.3639 157.065 45.0176 156.135 45.1629C156.307 45.3899 156.48 45.626 156.634 45.8348L158.109 47.9004H156.643H156.648ZM155.354 42.6841C155.181 42.6841 155.009 42.6932 154.891 42.7114V44.4865C154.972 44.4955 155.136 44.5046 155.317 44.5046C156.03 44.5046 156.466 44.1414 156.466 43.5649C156.466 42.9883 156.103 42.6841 155.354 42.6841Z" fill="white"/>
<path d="M162.418 48.0001C160.538 48.0001 159.621 46.8061 159.621 44.9039C159.621 42.8745 160.979 41.6533 162.631 41.6533C164.284 41.6533 165.428 42.6385 165.428 44.7404C165.428 46.8424 164.088 48.0001 162.418 48.0001ZM162.518 42.7202C161.669 42.7202 160.888 43.3921 160.888 44.7767C160.888 46.0751 161.396 46.9241 162.499 46.9241C163.303 46.9241 164.156 46.3067 164.156 44.8312C164.156 43.4647 163.571 42.7202 162.518 42.7202Z" fill="white"/>
<path d="M169.255 47.9368C168.615 47.9368 168.061 47.9095 167.539 47.8914V41.7671C168.025 41.7489 168.769 41.7217 169.528 41.7217C171.434 41.7217 172.646 42.5706 172.646 44.7271C172.646 46.8835 171.262 47.9413 169.255 47.9413M169.446 42.7159C169.173 42.7159 168.919 42.725 168.724 42.7431V46.8835C168.887 46.9107 169.137 46.9289 169.373 46.9289C170.531 46.9289 171.371 46.2752 171.371 44.8179C171.371 43.4968 170.853 42.7159 169.446 42.7159Z" fill="white"/>
<path d="M177.178 48.0001C175.235 48.0001 174.799 46.9423 174.799 45.7711V41.7578H175.984V45.6984C175.984 46.4702 176.238 47.0195 177.259 47.0195C178.172 47.0195 178.553 46.6382 178.553 45.5895V41.7578H179.729V45.5168C179.729 47.192 178.798 48.0001 177.178 48.0001Z" fill="white"/>
<path d="M184.736 47.9821C182.585 47.9821 181.895 46.552 181.895 45.0221C181.895 43.0745 182.916 41.708 184.977 41.708C185.413 41.708 185.881 41.7625 186.28 41.8714L186.153 42.9474C185.753 42.8294 185.331 42.7658 184.914 42.7658C183.765 42.7658 183.197 43.6329 183.197 44.8224C183.197 46.1616 183.756 46.9062 184.995 46.9062C185.368 46.9062 185.871 46.7972 186.189 46.6519L186.325 47.7052C185.871 47.8686 185.313 47.9776 184.741 47.9776" fill="white"/>
<path d="M190.761 42.7657V47.9003H189.576V42.7657H187.982V41.7578H192.359V42.7657H190.761Z" fill="white"/>
<path d="M195.256 48.0004C194.82 48.0004 194.379 47.955 193.998 47.8551L194.071 46.7565C194.416 46.8745 194.911 46.9744 195.356 46.9744C195.955 46.9744 196.422 46.7292 196.422 46.1617C196.422 44.9859 193.844 45.5262 193.844 43.5059C193.844 42.4118 194.711 41.6582 196.186 41.6582C196.531 41.6582 196.935 41.7036 197.299 41.7672L197.235 42.8068C196.89 42.7069 196.504 42.6434 196.132 42.6434C195.446 42.6434 195.101 42.9521 195.101 43.3924C195.101 44.4956 197.689 44.0825 197.689 46.0029C197.689 47.1605 196.767 48.0049 195.256 48.0049" fill="white"/>
</g>
<defs>
<clipPath id="clip0_1_5635">
<rect width="197.902" height="48" fill="white"/>
</clipPath>
</defs>
</svg>
