<svg width="64" height="64" viewBox="0 0 64 64" fill="none" xmlns="http://www.w3.org/2000/svg">
<path fill-rule="evenodd" clip-rule="evenodd" d="M8 26.3071L18.3382 17.268L32.0367 16L45.6244 17.2355L56 26.3071L55.5142 26.8627L55.9629 26.8723L55.4958 26.8838L55.4828 26.8986L32.0367 53.7143L8.53414 26.9161L8.07366 26.9064L8.51873 26.8985L8.51807 26.8978L8 26.3071ZM9.59891 26.9386L31.0566 51.4052L18.0087 27.5216L18.0059 27.5165L17.7844 27.111L9.59891 26.9386ZM31.1548 51.5172L32.0358 52.5217L33.1776 51.2158L45.6244 27.3236L45.6565 27.2621L45.7352 27.111H18.3383L31.1548 51.5172ZM33.2837 51.0943L54.4291 26.91L46.2521 27.111L46.0812 27.4271L46.0708 27.4465L33.2837 51.0943ZM54.4897 26.8407L54.8914 26.3814L45.7805 18.4156L46.3733 26.3154L46.3739 26.3221L46.3741 26.3253L46.3743 26.3277L46.3998 26.6676L54.4897 26.8407ZM45.7235 18.3659L45.2992 17.9949L33.2835 16.9023L45.9182 26.3253L45.9198 26.3266L45.9198 26.3253L45.7235 18.3659ZM33.2101 16.8956L32.0374 16.789L31.0166 16.8835L18.486 26.7358H45.6244L45.6183 26.731L45.6166 26.7296L33.2101 16.8956ZM30.9403 16.8905L18.6639 18.0269L18.3509 18.3006L18.1539 26.3136L18.1537 26.3253L18.1536 26.3266L18.1554 26.3253L18.1603 26.3217L30.9403 16.8905ZM18.3039 18.3417L17.7106 26.7358L9.54783 26.8803L9.10958 26.3806L18.3039 18.3417Z" fill="#BF9032"/>
</svg>
