<?xml version="1.0" encoding="UTF-8"?>
<svg width="111px" height="122px" viewBox="0 0 111 122" version="1.1" xmlns="http://www.w3.org/2000/svg" xmlns:xlink="http://www.w3.org/1999/xlink">
    <title>Combined Shape</title>
    <g id="Desktop" stroke="none" stroke-width="1" fill="none" fill-rule="evenodd">
        <g id="Desktop-/-Electronic-Table-Games-Copy" transform="translate(-846.000000, -1035.000000)" fill="#EC1C24" fill-rule="nonzero">
            <path d="M869.770465,1035.61692 L899.618019,1047.98018 C903.739107,1049.68719 905.696103,1054.41179 903.989092,1058.53288 L891.62583,1088.38044 C889.91882,1092.50152 885.194214,1094.45852 881.073126,1092.75151 L851.225572,1080.38825 C847.104484,1078.68124 845.147488,1073.95663 846.854499,1069.83554 L859.21776,1039.98799 C860.924771,1035.8669 865.649377,1033.9099 869.770465,1035.61692 Z M861.083233,1040.76069 L848.719971,1070.60825 C847.439713,1073.69906 848.90746,1077.24252 851.998276,1078.52277 L881.84583,1090.88604 C884.936646,1092.16629 888.480101,1090.69855 889.760358,1087.60773 L902.12362,1057.76018 C903.403878,1054.66936 901.936131,1051.12591 898.845315,1049.84565 L868.997761,1037.48239 C865.906945,1036.20213 862.36349,1037.66988 861.083233,1040.76069 Z M871.690851,1062.6388 C872.544356,1060.57826 874.90666,1059.59976 876.967203,1060.45327 C879.027747,1061.30677 880.006245,1063.66908 879.15274,1065.72962 C878.299235,1067.79016 875.936931,1068.76866 873.876388,1067.91516 C871.815844,1067.06165 870.837346,1064.69935 871.690851,1062.6388 Z M938.808275,1100.67429 L954.961655,1128.65276 C957.191971,1132.51578 955.868402,1137.45541 952.005381,1139.68573 L924.026906,1155.83911 C920.163885,1158.06942 915.224259,1156.74585 912.993942,1152.88283 L896.840562,1124.90436 C894.610246,1121.04134 895.933814,1116.10171 899.796836,1113.87139 L927.775311,1097.71801 C931.638332,1095.4877 936.577958,1096.81127 938.808275,1100.67429 Z M928.784897,1099.46667 L900.806422,1115.62005 C897.909156,1117.29279 896.916479,1120.99751 898.589217,1123.89477 L914.742597,1151.87325 C916.415334,1154.77051 920.120054,1155.76319 923.01732,1154.09045 L950.995795,1137.93707 C953.893061,1136.26433 954.885738,1132.55961 953.213,1129.66235 L937.05962,1101.68387 C935.386883,1098.78661 931.682163,1097.79393 928.784897,1099.46667 Z M921.19618,1138.82111 C923.127691,1137.70595 925.597504,1138.36774 926.712662,1140.29925 C927.82782,1142.23076 927.166036,1144.70057 925.234525,1145.81573 C923.303014,1146.93089 920.833201,1146.2691 919.718043,1144.33759 C918.602885,1142.40608 919.264669,1139.93627 921.19618,1138.82111 Z M938.682727,1128.72525 C940.614238,1127.61009 943.084051,1128.27187 944.199209,1130.20338 C945.314367,1132.1349 944.652583,1134.60471 942.721072,1135.71987 C940.789561,1136.83502 938.319748,1136.17324 937.20459,1134.24173 C936.089432,1132.31022 936.751216,1129.84041 938.682727,1128.72525 Z M923.881936,1123.28125 C925.813447,1122.16609 928.28326,1122.82788 929.398418,1124.75939 C930.513576,1126.6909 929.851792,1129.16071 927.920281,1130.27587 C925.98877,1131.39103 923.518957,1130.72924 922.403799,1128.79773 C921.288641,1126.86622 921.950425,1124.39641 923.881936,1123.28125 Z M914.597627,1119.31539 C915.712785,1121.2469 915.051001,1123.71671 913.11949,1124.83187 C911.187979,1125.94703 908.718166,1125.28525 907.603008,1123.35374 C906.48785,1121.42223 907.149634,1118.95241 909.081145,1117.83725 C911.012656,1116.7221 913.482469,1117.38388 914.597627,1119.31539 Z M926.567692,1107.74139 C928.499203,1106.62623 930.969016,1107.28802 932.084174,1109.21953 C933.199332,1111.15104 932.537548,1113.62085 930.606037,1114.73601 C928.674526,1115.85117 926.204713,1115.18938 925.089555,1113.25787 C923.974397,1111.32636 924.636181,1108.85655 926.567692,1107.74139 Z" id="Combined-Shape"></path>
        </g>
    </g>
</svg>