<?xml version="1.0" encoding="UTF-8"?>
<svg width="126px" height="123px" viewBox="0 0 126 123" version="1.1" xmlns="http://www.w3.org/2000/svg" xmlns:xlink="http://www.w3.org/1999/xlink">
    <title>Combined Shape</title>
    <g id="Desktop" stroke="none" stroke-width="1" fill="none" fill-rule="evenodd">
        <g id="Desktop-/-Electronic-Table-Games-Copy" transform="translate(-831.000000, -649.000000)" fill="#EC1C24" fill-rule="nonzero">
            <path d="M869.770465,649.616915 L899.618019,661.980177 C903.739107,663.687187 905.696103,668.411794 903.989092,672.532881 L891.62583,702.380436 C889.91882,706.501523 885.194214,708.458519 881.073126,706.751509 L851.225572,694.388247 C847.104484,692.681237 845.147488,687.95663 846.854499,683.835543 L859.21776,653.987988 C860.924771,649.866901 865.649377,647.909905 869.770465,649.616915 Z M861.083233,654.760692 L848.719971,684.608247 C847.439713,687.699062 848.90746,691.242517 851.998276,692.522775 L881.84583,704.886037 C884.936646,706.166295 888.480101,704.698548 889.760358,701.607732 L902.12362,671.760177 C903.403878,668.669362 901.936131,665.125907 898.845315,663.845649 L868.997761,651.482387 C865.906945,650.20213 862.36349,651.669877 861.083233,654.760692 Z M871.690851,676.638804 C872.544356,674.578261 874.90666,673.599763 876.967203,674.453268 C879.027747,675.306773 880.006245,677.669076 879.15274,679.72962 C878.299235,681.790164 875.936931,682.768662 873.876388,681.915156 C871.815844,681.061651 870.837346,678.699348 871.690851,676.638804 Z M871.38345,722.606008 C875.844083,722.606008 879.460141,726.222065 879.460141,730.682698 L879.460141,762.989458 C879.460141,767.450091 875.844083,771.066148 871.38345,771.066148 L839.07669,771.066148 C834.616057,771.066148 831,767.450091 831,762.989458 L831,730.682698 C831,726.222065 834.616057,722.606008 839.07669,722.606008 L871.38345,722.606008 Z M871.38345,724.62518 L839.07669,724.62518 C835.731216,724.62518 833.019173,727.337223 833.019173,730.682698 L833.019173,762.989458 C833.019173,766.334933 835.731216,769.046976 839.07669,769.046976 L871.38345,769.046976 C874.728925,769.046976 877.440968,766.334933 877.440968,762.989458 L877.440968,730.682698 C877.440968,727.337223 874.728925,724.62518 871.38345,724.62518 Z M845.134208,754.912768 C847.364524,754.912768 849.172553,756.720797 849.172553,758.951113 C849.172553,761.181429 847.364524,762.989458 845.134208,762.989458 C842.903891,762.989458 841.095863,761.181429 841.095863,758.951113 C841.095863,756.720797 842.903891,754.912768 845.134208,754.912768 Z M865.325933,754.912768 C867.556249,754.912768 869.364278,756.720797 869.364278,758.951113 C869.364278,761.181429 867.556249,762.989458 865.325933,762.989458 C863.095616,762.989458 861.287588,761.181429 861.287588,758.951113 C861.287588,756.720797 863.095616,754.912768 865.325933,754.912768 Z M845.134208,742.797733 C847.364524,742.797733 849.172553,744.605761 849.172553,746.836078 C849.172553,749.066394 847.364524,750.874423 845.134208,750.874423 C842.903891,750.874423 841.095863,749.066394 841.095863,746.836078 C841.095863,744.605761 842.903891,742.797733 845.134208,742.797733 Z M865.325933,742.797733 C867.556249,742.797733 869.364278,744.605761 869.364278,746.836078 C869.364278,749.066394 867.556249,750.874423 865.325933,750.874423 C863.095616,750.874423 861.287588,749.066394 861.287588,746.836078 C861.287588,744.605761 863.095616,742.797733 865.325933,742.797733 Z M845.134208,730.682698 C847.364524,730.682698 849.172553,732.490726 849.172553,734.721043 C849.172553,736.951359 847.364524,738.759388 845.134208,738.759388 C842.903891,738.759388 841.095863,736.951359 841.095863,734.721043 C841.095863,732.490726 842.903891,730.682698 845.134208,730.682698 Z M865.325933,730.682698 C867.556249,730.682698 869.364278,732.490726 869.364278,734.721043 C869.364278,736.951359 867.556249,738.759388 865.325933,738.759388 C863.095616,738.759388 861.287588,736.951359 861.287588,734.721043 C861.287588,732.490726 863.095616,730.682698 865.325933,730.682698 Z M938.808275,714.674288 L954.961655,742.652763 C957.191971,746.515784 955.868402,751.45541 952.005381,753.685727 L924.026906,769.839107 C920.163885,772.069423 915.224259,770.745854 912.993942,766.882833 L896.840562,738.904358 C894.610246,735.041337 895.933814,730.10171 899.796836,727.871394 L927.775311,711.718014 C931.638332,709.487697 936.577958,710.811266 938.808275,714.674288 Z M928.784897,713.466669 L900.806422,729.620049 C897.909156,731.292786 896.916479,734.997506 898.589217,737.894772 L914.742597,765.873247 C916.415334,768.770513 920.120054,769.763189 923.01732,768.090452 L950.995795,751.937072 C953.893061,750.264335 954.885738,746.559615 953.213,743.662349 L937.05962,715.683874 C935.386883,712.786608 931.682163,711.793931 928.784897,713.466669 Z M921.19618,752.82111 C923.127691,751.705952 925.597504,752.367737 926.712662,754.299247 C927.82782,756.230758 927.166036,758.700571 925.234525,759.815729 C923.303014,760.930887 920.833201,760.269103 919.718043,758.337592 C918.602885,756.406082 919.264669,753.936269 921.19618,752.82111 Z M938.682727,742.725248 C940.614238,741.61009 943.084051,742.271874 944.199209,744.203385 C945.314367,746.134895 944.652583,748.604708 942.721072,749.719867 C940.789561,750.835025 938.319748,750.17324 937.20459,748.24173 C936.089432,746.310219 936.751216,743.840406 938.682727,742.725248 Z M923.881936,737.281251 C925.813447,736.166093 928.28326,736.827877 929.398418,738.759388 C930.513576,740.690898 929.851792,743.160711 927.920281,744.27587 C925.98877,745.391028 923.518957,744.729243 922.403799,742.797733 C921.288641,740.866222 921.950425,738.396409 923.881936,737.281251 Z M914.597627,733.315391 C915.712785,735.246902 915.051001,737.716715 913.11949,738.831873 C911.187979,739.947031 908.718166,739.285247 907.603008,737.353736 C906.48785,735.422225 907.149634,732.952412 909.081145,731.837254 C911.012656,730.722096 913.482469,731.38388 914.597627,733.315391 Z M926.567692,721.741391 C928.499203,720.626233 930.969016,721.288018 932.084174,723.219528 C933.199332,725.151039 932.537548,727.620852 930.606037,728.73601 C928.674526,729.851168 926.204713,729.189384 925.089555,727.257873 C923.974397,725.326363 924.636181,722.85655 926.567692,721.741391 Z" id="Combined-Shape"></path>
        </g>
    </g>
</svg>