<?xml version="1.0" encoding="UTF-8"?>
<svg width="115px" height="127px" viewBox="0 0 115 127" version="1.1" xmlns="http://www.w3.org/2000/svg" xmlns:xlink="http://www.w3.org/1999/xlink">
    <title>Combined Shape</title>
    <g id="Desktop" stroke="none" stroke-width="1" fill="none" fill-rule="evenodd">
        <g id="Desktop-/-Electronic-Table-Games-Copy" transform="translate(-834.000000, -1803.000000)" fill="#EC1C24" fill-rule="nonzero">
            <path d="M940.78399,1822.32087 L888.357964,1822.32087 C885.017107,1822.32087 882.308807,1825.02917 882.308807,1828.37003 L882.308807,1921.12377 C882.308807,1924.46463 885.017107,1927.17293 888.357964,1927.17293 L940.78399,1927.17293 C944.124848,1927.17293 946.833147,1924.46463 946.833147,1921.12377 L946.833147,1828.37003 C946.833147,1825.02917 944.124848,1822.32087 940.78399,1822.32087 Z M880.292422,1828.37003 C880.292422,1823.91556 883.903488,1820.30449 888.357964,1820.30449 L940.78399,1820.30449 C945.238467,1820.30449 948.849533,1823.91556 948.849533,1828.37003 L948.849533,1921.12377 C948.849533,1925.57825 945.238467,1929.18931 940.78399,1929.18931 L888.357964,1929.18931 C883.903488,1929.18931 880.292422,1925.57825 880.292422,1921.12377 L880.291834,1919.011 L869.063329,1922.02035 C864.760635,1923.17325 860.338,1920.61984 859.185097,1916.31715 L835.178663,1826.72391 C834.025759,1822.42122 836.579169,1817.99859 840.881863,1816.84568 L891.521515,1803.27683 C895.824209,1802.12393 900.246844,1804.67733 901.399747,1808.98003 L904.432834,1820.304 L902.346834,1820.304 L899.452068,1809.50191 C898.587391,1806.27489 895.270414,1804.35983 892.043394,1805.22451 L841.403742,1818.79336 C838.176721,1819.65804 836.261664,1822.97502 837.126342,1826.20204 L861.132776,1915.79527 C861.997453,1919.02229 865.314429,1920.93734 868.54145,1920.07267 L880.291834,1916.923 L880.292422,1828.37003 Z M928.685677,1894.91076 L928.685677,1896.92714 L927.40199,1896.92777 L933.63699,1907.80177 L936.75199,1903.64777 L936.75199,1896.92777 L934.734834,1896.92714 L934.734834,1894.91076 L940.78399,1894.91076 L940.78399,1896.92714 L938.76799,1896.92777 L938.76799,1919.10777 L940.78399,1919.10738 L940.78399,1921.12377 L934.734834,1921.12377 L934.734834,1919.10738 L936.75199,1919.10777 L936.75199,1907.00877 L927.67799,1919.10777 L928.685677,1919.10738 L928.685677,1921.12377 L922.63652,1921.12377 L922.63652,1919.10738 L925.15699,1919.10777 L932.31999,1909.55777 L925.07799,1896.92777 L922.63652,1896.92714 L922.63652,1894.91076 L928.685677,1894.91076 Z M920.620134,1862.64859 C923.960991,1862.64859 926.669291,1865.35689 926.669291,1868.69774 C926.669291,1872.7326 922.63652,1878.11172 914.570977,1884.8351 C906.505435,1878.11172 902.472664,1872.7326 902.472664,1868.69774 C902.472664,1865.35689 905.180963,1862.64859 908.521821,1862.64859 C911.743361,1862.64859 914.376721,1865.16689 914.560709,1868.34231 L914.570977,1868.69774 C914.570977,1865.35689 917.279277,1862.64859 920.620134,1862.64859 Z M894.407121,1828.37003 L894.407121,1830.38642 L892.389964,1830.38603 L892.389964,1842.48503 L901.463964,1830.38603 L900.456278,1830.38642 L900.456278,1828.37003 L906.505435,1828.37003 L906.505435,1830.38642 L903.984964,1830.38603 L896.821964,1839.93603 L904.063964,1852.56603 L906.505435,1852.56666 L906.505435,1854.58304 L900.456278,1854.58304 L900.456278,1852.56666 L901.739964,1852.56603 L895.504964,1841.69203 L892.389964,1845.84603 L892.389964,1852.56603 L894.407121,1852.56666 L894.407121,1854.58304 L888.357964,1854.58304 L888.357964,1852.56666 L890.373964,1852.56603 L890.373964,1830.38603 L888.357964,1830.38642 L888.357964,1828.37003 L894.407121,1828.37003 Z M860.638326,1828.25208 C861.210351,1830.38691 860.869973,1832.55126 859.856228,1834.33112 L859.876913,1834.34088 L853.32409,1848.6218 L851.491424,1847.78088 L856.10893,1837.71762 C855.734462,1837.8826 855.34264,1838.02112 854.935126,1838.13031 C850.632433,1839.28322 846.209798,1836.72981 845.056895,1832.42711 C843.903991,1828.12442 846.457401,1823.70179 850.760094,1822.54888 C855.062788,1821.39598 859.485423,1823.94939 860.638326,1828.25208 Z M851.281973,1824.49656 C848.054953,1825.36124 846.139896,1828.67821 847.004573,1831.90524 C847.869251,1835.13226 851.186227,1837.04731 854.413247,1836.18263 C857.640267,1835.31796 859.555325,1832.00098 858.690647,1828.77396 C857.82597,1825.54694 854.508993,1823.63188 851.281973,1824.49656 Z" id="Combined-Shape"></path>
        </g>
    </g>
</svg>