<?xml version="1.0" encoding="UTF-8"?>
<svg width="127px" height="102px" viewBox="0 0 127 102" version="1.1" xmlns="http://www.w3.org/2000/svg" xmlns:xlink="http://www.w3.org/1999/xlink">
    <title>Combined Shape</title>
    <g id="Desktop" stroke="none" stroke-width="1" fill="none" fill-rule="evenodd">
        <g id="Desktop-/-Electronic-Table-Games-Copy" transform="translate(-825.000000, -2194.000000)" fill="#EC1C24" fill-rule="nonzero">
            <path d="M943.621473,2194 C947.755999,2194 951.107695,2197.3517 951.107695,2201.48622 L951.107695,2287.57778 C951.107695,2291.71231 947.755999,2295.064 943.621473,2295.064 L894.961028,2295.064 C890.826501,2295.064 887.474805,2291.71231 887.474805,2287.57778 L887.474805,2201.48622 C887.474805,2197.3517 890.826501,2194 894.961028,2194 L943.621473,2194 Z M943.621473,2195.87156 L894.961028,2195.87156 C891.860133,2195.87156 889.346361,2198.38533 889.346361,2201.48622 L889.346361,2287.57778 C889.346361,2290.67867 891.860133,2293.19245 894.961028,2293.19245 L943.621473,2293.19245 C946.722368,2293.19245 949.23614,2290.67867 949.23614,2287.57778 L949.23614,2201.48622 C949.23614,2198.38533 946.722368,2195.87156 943.621473,2195.87156 Z M932.392139,2263.24756 L932.392139,2265.11911 L930.785805,2265.119 L932.199805,2270.733 L938.225805,2270.733 L939.617805,2265.119 L938.006806,2265.11911 L938.006806,2263.24756 L943.621473,2263.24756 L943.621473,2265.11911 L941.545805,2265.119 L936.440805,2285.706 L938.006806,2285.70622 L938.006806,2287.57778 L932.392139,2287.57778 L932.392139,2285.70622 L934.043805,2285.706 L928.854805,2265.119 L926.777473,2265.11911 L926.777473,2263.24756 L932.392139,2263.24756 Z M937.760805,2272.605 L932.671805,2272.605 L935.236805,2282.782 L937.760805,2272.605 Z M924.905917,2233.30267 C928.006812,2233.30267 930.520584,2235.81644 930.520584,2238.91733 C930.520584,2242.66238 926.777473,2247.65514 919.29125,2253.8956 C911.805028,2247.65514 908.061917,2242.66238 908.061917,2238.91733 C908.061917,2235.81644 910.575689,2233.30267 913.676583,2233.30267 C916.666732,2233.30267 919.110946,2235.64009 919.281719,2238.58743 L919.29125,2238.91733 C919.29125,2235.81644 921.805022,2233.30267 924.905917,2233.30267 Z M902.520943,2202.19332 L903.427805,2202.422 L904.336616,2202.19677 L909.729805,2223.944 L911.805028,2223.94489 L911.805028,2225.81644 L906.190361,2225.81644 L906.190361,2223.94489 L907.800805,2223.944 L906.408805,2218.33 L900.382805,2218.33 L898.968805,2223.944 L900.575694,2223.94489 L900.575694,2225.81644 L894.961028,2225.81644 L894.961028,2223.94489 L897.038805,2223.944 L902.520943,2202.19332 Z M903.420805,2206.278 L900.854805,2216.458 L905.944805,2216.458 L903.420805,2206.278 Z M865.750359,2220.33615 L880.722803,2246.26918 C882.790067,2249.84979 881.563261,2254.42829 877.982656,2256.49555 L852.049621,2271.468 C848.469016,2273.53526 843.890514,2272.30846 841.823251,2268.72785 L826.850806,2242.79482 C824.783543,2239.21421 826.010349,2234.63571 829.590954,2232.56845 L855.523989,2217.596 C859.104594,2215.52874 863.683095,2216.75554 865.750359,2220.33615 Z M856.459767,2219.21682 L830.526732,2234.18926 C827.841278,2235.73971 826.921174,2239.17359 828.471621,2241.85904 L843.444066,2267.79207 C844.994513,2270.47753 848.428389,2271.39763 851.113843,2269.84718 L877.046878,2254.87474 C879.732332,2253.32429 880.652436,2249.89042 879.101989,2247.20496 L864.129544,2221.27193 C862.579097,2218.58647 859.14522,2217.66637 856.459767,2219.21682 Z M849.425843,2255.69415 C851.216145,2254.66052 853.505396,2255.27392 854.539028,2257.06422 C855.572659,2258.85452 854.959256,2261.14378 853.168954,2262.17741 C851.378651,2263.21104 849.0894,2262.59764 848.055769,2260.80733 C847.022137,2259.01703 847.63554,2256.72778 849.425843,2255.69415 Z M865.633989,2246.33637 C867.424292,2245.30274 869.713543,2245.91614 870.747174,2247.70644 C871.780806,2249.49675 871.167403,2251.786 869.377101,2252.81963 C867.586798,2253.85326 865.297547,2253.23986 864.263916,2251.44956 C863.230284,2249.65925 863.843687,2247.37 865.633989,2246.33637 Z M851.915249,2241.29037 C853.705552,2240.25674 855.994803,2240.87014 857.028434,2242.66045 C858.062066,2244.45075 857.448663,2246.74 855.65836,2247.77363 C853.868058,2248.80726 851.578807,2248.19386 850.545175,2246.40356 C849.511544,2244.61325 850.124947,2242.324 851.915249,2241.29037 Z M843.309694,2237.61445 C844.343326,2239.40475 843.729923,2241.694 841.93962,2242.72763 C840.149318,2243.76126 837.860067,2243.14786 836.826435,2241.35756 C835.792804,2239.56725 836.406207,2237.278 838.196509,2236.24437 C839.986812,2235.21074 842.276062,2235.82414 843.309694,2237.61445 Z M854.404656,2226.88659 C856.194958,2225.85296 858.484209,2226.46637 859.517841,2228.25667 C860.551472,2230.04697 859.93807,2232.33622 858.147767,2233.36985 C856.357465,2234.40348 854.068214,2233.79008 853.034582,2231.99978 C852.00095,2230.20948 852.614353,2227.92023 854.404656,2226.88659 Z" id="Combined-Shape"></path>
        </g>
    </g>
</svg>