<?xml version="1.0" encoding="UTF-8"?>
<svg width="114px" height="127px" viewBox="0 0 114 127" version="1.1" xmlns="http://www.w3.org/2000/svg" xmlns:xlink="http://www.w3.org/1999/xlink">
    <title>Combined Shape</title>
    <g id="Desktop" stroke="none" stroke-width="1" fill="none" fill-rule="evenodd">
        <g id="Desktop-/-Electronic-Table-Games-Copy" transform="translate(-835.000000, -1419.000000)" fill="#EC1C24" fill-rule="nonzero">
            <path d="M901.497913,1424.98003 L904.531,1436.304 L940.882156,1436.30449 C945.336632,1436.30449 948.947699,1439.91556 948.947699,1444.37003 L948.947699,1537.12377 C948.947699,1541.57825 945.336632,1545.18931 940.882156,1545.18931 L888.45613,1545.18931 C884.001654,1545.18931 880.390588,1541.57825 880.390588,1537.12377 L880.39,1535.011 L869.161494,1538.02035 C864.858801,1539.17325 860.436166,1536.61984 859.283263,1532.31715 L835.276829,1442.72391 C834.123925,1438.42122 836.677335,1433.99859 840.980028,1432.84568 L891.619681,1419.27683 C895.922374,1418.12393 900.345009,1420.67733 901.497913,1424.98003 Z M940.882156,1438.32087 L888.45613,1438.32087 C885.115273,1438.32087 882.406973,1441.02917 882.406973,1444.37003 L882.406973,1537.12377 C882.406973,1540.46463 885.115273,1543.17293 888.45613,1543.17293 L940.882156,1543.17293 C944.223013,1543.17293 946.931313,1540.46463 946.931313,1537.12377 L946.931313,1444.37003 C946.931313,1441.02917 944.223013,1438.32087 940.882156,1438.32087 Z M928.783842,1510.91076 L928.783842,1512.92714 L927.052588,1512.92649 L928.577588,1518.97549 L935.068588,1518.97549 L936.568588,1512.92649 L934.832999,1512.92714 L934.832999,1510.91076 L940.882156,1510.91076 L940.882156,1512.92714 L938.645588,1512.92649 L933.145588,1535.10649 L934.832999,1535.10738 L934.832999,1537.12377 L928.783842,1537.12377 L928.783842,1535.10738 L930.563588,1535.10649 L924.973588,1512.92649 L922.734686,1512.92714 L922.734686,1510.91076 L928.783842,1510.91076 Z M892.14156,1421.22451 L841.501907,1434.79336 C838.274887,1435.65804 836.35983,1438.97502 837.224507,1442.20204 L861.230941,1531.79527 C862.095619,1535.02229 865.412595,1536.93734 868.639615,1536.07267 L880.39,1532.923 L880.390588,1444.37003 C880.390588,1439.91556 884.001654,1436.30449 888.45613,1436.30449 L902.445,1436.304 L899.550234,1425.50191 C898.685556,1422.27489 895.36858,1420.35983 892.14156,1421.22451 Z M934.568588,1520.99249 L929.085588,1520.99249 L931.849588,1531.95849 L934.568588,1520.99249 Z M920.7183,1478.64859 C924.059157,1478.64859 926.767457,1481.35689 926.767457,1484.69774 C926.767457,1488.7326 922.734686,1494.11172 914.669143,1500.8351 C906.603601,1494.11172 902.570829,1488.7326 902.570829,1484.69774 C902.570829,1481.35689 905.279129,1478.64859 908.619986,1478.64859 C911.841527,1478.64859 914.474886,1481.16689 914.658874,1484.34231 L914.669143,1484.69774 C914.669143,1481.35689 917.377443,1478.64859 920.7183,1478.64859 Z M900.554444,1444.37003 L900.554444,1446.38642 L898.867,1446.386 L904.366588,1468.56649 L906.603601,1468.56666 L906.603601,1470.58304 L900.554444,1470.58304 L900.554444,1468.56666 L902.289588,1468.56649 L900.789588,1462.51749 L894.298588,1462.51749 L892.773588,1468.56649 L894.505287,1468.56666 L894.505287,1470.58304 L888.45613,1470.58304 L888.45613,1468.56666 L890.694588,1468.56649 L896.285,1446.386 L894.505287,1446.38642 L894.505287,1444.37003 L900.554444,1444.37003 Z M860.596655,1435.93949 L861.118534,1437.88717 L857.311,1438.907 L861.659147,1455.4862 C862.667938,1459.25105 860.433704,1463.12086 856.668848,1464.12965 C852.903991,1465.13844 849.034185,1462.90421 848.025395,1459.13935 L849.973074,1458.61747 C850.693638,1461.30665 853.457785,1462.90253 856.146969,1462.18197 C858.836152,1461.4614 860.432033,1458.69726 859.711468,1456.00807 L860.782,1455.721 L859.710078,1456.00283 L855.364,1439.429 L851.380139,1440.49656 L850.85826,1438.54888 L860.596655,1435.93949 Z M897.570588,1449.53449 L894.806588,1460.50049 L900.289588,1460.50049 L897.570588,1449.53449 Z" id="Combined-Shape"></path>
        </g>
    </g>
</svg>