<?xml version="1.0" encoding="UTF-8"?>
<svg width="128px" height="128px" viewBox="0 0 128 128" version="1.1" xmlns="http://www.w3.org/2000/svg" xmlns:xlink="http://www.w3.org/1999/xlink">
    <title>Combined Shape</title>
    <g id="Desktop" stroke="none" stroke-width="1" fill="none" fill-rule="evenodd" opacity="0.879999995">
        <g id="Desktop-/-Electronic-Table-Games-Copy" transform="translate(-828.000000, -264.000000)" fill="#EC1C24" fill-rule="nonzero">
            <path d="M893.032258,264 C909.925737,264.275327 925.229509,271.087857 936.518919,282.020956 L937.984751,283.475083 C948.841026,294.696744 955.635688,309.874915 955.985783,326.63745 L955.991,327.023 L955.991,326.967 L955.992,327.056 L955.991,327.032 L956,329.032258 C955.724673,345.925737 948.912143,361.229509 937.979044,372.518919 L936.524917,373.984751 C925.303256,384.841026 910.125085,391.635688 893.36255,391.985783 L892.943,391.992 L892.118,391.999 L892,392 L891.940929,391.999973 L890.967742,392 C874.074248,391.724667 858.770486,384.912138 847.481081,373.979044 L846.015249,372.524917 C835.158974,361.303256 828.364312,346.125085 828.014217,329.36255 L828.008,328.969 L828,326.967742 C828.275333,310.074248 835.087862,294.770486 846.020956,283.481081 L847.475083,282.015249 C858.696744,271.158974 873.874915,264.364312 890.63745,264.014217 L891.021,264.008 L893.032258,264 Z M892,371.354839 C886.479887,371.354839 881.200731,370.323185 876.344817,368.442165 L876.362504,368.449676 L869.2484,385.623083 C875.989334,388.286825 883.309556,389.801916 890.967766,389.927056 L890.967742,371.354839 L893.032258,371.354839 L893.032234,389.927056 C900.690444,389.801916 908.010666,388.286825 914.7516,385.623083 L907.637496,368.449676 L907.655183,368.442165 C902.799269,370.323185 897.520113,371.354839 892,371.354839 Z M861.363,358.676 L862.073416,359.386417 L848.941178,372.519082 C854.248938,377.653811 860.472272,381.847923 867.342522,384.832762 L874.455139,367.65962 L874.521334,367.687315 C869.780987,365.596584 865.485929,362.681471 861.817817,359.123635 L861.363,358.676 Z M922.636,358.676 L922.182183,359.123635 C918.514071,362.681471 914.219013,365.596584 909.478666,367.687315 L909.544861,367.65962 L916.657478,384.832762 C923.527728,381.847923 929.751062,377.653811 935.058822,372.519082 L921.926584,359.386417 L922.636,358.676 Z M923.123635,358.182183 L922.656,358.656 L923.386417,357.926584 L936.519082,371.058822 C941.653811,365.751062 945.847923,359.527728 948.832762,352.657478 L931.65962,345.544861 L931.679843,345.495597 C929.589641,350.229241 926.677235,354.518439 923.123635,358.182183 Z M852.320157,345.495597 L852.34038,345.544861 L835.167238,352.657478 C838.152077,359.527728 842.346189,365.751062 847.480918,371.058822 L860.613583,357.926584 L861.3435,358.6565 C857.577572,354.890573 854.501238,350.435052 852.320157,345.495597 Z M892,286.709677 C869.195985,286.709677 850.709677,305.195985 850.709677,328 C850.709677,350.804015 869.195985,369.290323 892,369.290323 C914.804015,369.290323 933.290323,350.804015 933.290323,328 C933.290323,305.195985 914.804015,286.709677 892,286.709677 Z M830.072944,326.967766 L848.645161,326.967742 L848.645161,329.032258 L830.072944,329.032234 C830.198084,336.690444 831.713175,344.010666 834.376917,350.7516 L851.550324,343.637496 L851.557835,343.655183 C849.676815,338.799269 848.645161,333.520113 848.645161,328 C848.645161,322.49283 849.671983,317.225488 851.544618,312.378981 L851.550324,312.362504 L834.376917,305.2484 C831.713175,311.989334 830.198084,319.309556 830.072944,326.967766 Z M949.623083,305.2484 L932.449676,312.362504 L932.455382,312.378981 C934.246598,317.01477 935.263951,322.035596 935.34903,327.283048 L935.354,328 L935.34903,328.716952 C935.263742,333.977297 934.241593,339.009901 932.442165,343.655183 L932.449676,343.637496 L949.623083,350.7516 C952.286825,344.010666 953.801916,336.690444 953.927056,329.032234 L935.354839,329.032258 L935.354839,326.967742 L953.927056,326.967766 C953.801916,319.309556 952.286825,311.989334 949.623083,305.2484 Z M910.977834,309.022166 C913.396565,311.440897 913.396565,315.362435 910.977834,317.781167 C909.681394,319.077606 907.953203,319.679154 906.256099,319.585811 L899.978484,325.864088 C900.351461,327.262541 900.351258,328.739824 899.977875,330.13819 L906.253385,336.414339 C907.951361,336.320204 909.680703,336.921703 910.977834,338.218833 C913.396565,340.637565 913.396565,344.559103 910.977834,346.977834 C908.559103,349.396565 904.637565,349.396565 902.218833,346.977834 C900.922394,345.681394 900.320846,343.953203 900.414189,342.256099 L894.135912,335.978484 C892.738219,336.351258 891.261781,336.351258 889.864088,335.978484 L883.585811,342.256099 C883.679154,343.953203 883.077606,345.681394 881.781167,346.977834 C879.362435,349.396565 875.440897,349.396565 873.022166,346.977834 C870.603435,344.559103 870.603435,340.637565 873.022166,338.218833 C874.319297,336.921703 876.048639,336.320204 877.746615,336.414339 L884.022125,330.13819 C883.648742,328.739824 883.648539,327.262541 884.021516,325.864088 L877.743901,319.585811 C876.046797,319.679154 874.318606,319.077606 873.022166,317.781167 C870.603435,315.362435 870.603435,311.440897 873.022166,309.022166 C875.440897,306.603435 879.362435,306.603435 881.781167,309.022166 C883.078297,310.319297 883.679796,312.048639 883.585661,313.746615 L889.86181,320.022125 C891.260936,319.648539 892.739064,319.648539 894.13819,320.022125 L900.414339,313.746615 C900.320204,312.048639 900.921703,310.319297 902.218833,309.022166 C904.637565,306.603435 908.559103,306.603435 910.977834,309.022166 Z M903.678667,310.482 C902.83566,311.325007 902.410934,312.464284 902.47569,313.632335 L902.526781,314.553906 L894.755971,322.323925 L893.605596,322.01676 C892.55542,321.736349 891.44458,321.736349 890.394404,322.01676 L889.244029,322.323925 L881.473219,314.553906 L881.52431,313.632335 C881.589066,312.464284 881.16434,311.325007 880.321333,310.482 C878.708846,308.869512 876.094487,308.869512 874.482,310.482 C872.869512,312.094487 872.869512,314.708846 874.482,316.321333 C875.324559,317.163892 876.46307,317.588622 877.63052,317.52441 L878.551576,317.473751 L886.323039,325.246033 L886.016304,326.396113 C885.736347,327.445793 885.736503,328.555998 886.01676,329.605596 L886.323925,330.755971 L878.553906,338.526781 L877.632335,338.47569 C876.464284,338.410934 875.325007,338.83566 874.482,339.678667 C872.869512,341.291154 872.869512,343.905513 874.482,345.518 C876.094487,347.130488 878.708846,347.130488 880.321333,345.518 C881.163892,344.675441 881.588622,343.53693 881.52441,342.36948 L881.473751,341.448424 L889.246033,333.676961 L890.396113,333.983696 C891.445215,334.263499 892.554785,334.263499 893.603887,333.983696 L894.753967,333.676961 L902.526249,341.448424 L902.47559,342.36948 C902.411378,343.53693 902.836108,344.675441 903.678667,345.518 C905.291154,347.130488 907.905513,347.130488 909.518,345.518 C911.130488,343.905513 911.130488,341.291154 909.518,339.678667 C908.674993,338.83566 907.535716,338.410934 906.367665,338.47569 L905.446094,338.526781 L897.676075,330.755971 L897.98324,329.605596 C898.263497,328.555998 898.263653,327.445793 897.983696,326.396113 L897.676961,325.246033 L905.448424,317.473751 L906.36948,317.52441 C907.53693,317.588622 908.675441,317.163892 909.518,316.321333 C911.130488,314.708846 911.130488,312.094487 909.518,310.482 C907.905513,308.869512 905.291154,308.869512 903.678667,310.482 Z M936.519082,284.941178 L923.386417,298.073416 L922.656,297.343 L923.123635,297.817817 C926.677235,301.481561 929.589641,305.770759 931.679843,310.504403 L931.65962,310.455139 L948.832762,303.342522 C945.847923,296.472272 941.653811,290.248938 936.519082,284.941178 Z M847.480918,284.941178 C842.346189,290.248938 838.152077,296.472272 835.167238,303.342522 L852.34038,310.455139 L852.320157,310.504403 C854.501238,305.564948 857.577572,301.109427 861.3435,297.3435 L860.613583,298.073416 L847.480918,284.941178 Z M848.941178,283.480918 L862.073416,296.613583 L861.363,297.323 L861.817817,296.876365 C865.481561,293.322765 869.770759,290.410359 874.504403,288.320157 L874.455139,288.34038 L867.342522,271.167238 C860.472272,274.152077 854.248938,278.346189 848.941178,283.480918 Z M916.657478,271.167238 L909.544861,288.34038 L909.495597,288.320157 C914.229241,290.410359 918.518439,293.322765 922.182183,296.876365 L922.636,297.323 L921.926584,296.613583 L935.058822,283.480918 C929.751062,278.346189 923.527728,274.152077 916.657478,271.167238 Z M893.032234,266.072944 L893.032258,284.645161 L890.967742,284.645161 L890.967766,266.072944 C883.309556,266.198084 875.989334,267.713175 869.2484,270.376917 L876.362504,287.550324 L876.344817,287.557835 C881.200731,285.676815 886.479887,284.645161 892,284.645161 C897.520113,284.645161 902.799269,285.676815 907.655183,287.557835 L907.637496,287.550324 L914.7516,270.376917 C908.010666,267.713175 900.690444,266.198084 893.032234,266.072944 Z" id="Combined-Shape"></path>
        </g>
    </g>
</svg>