<?xml version="1.0" encoding="UTF-8"?><svg id="Layer_1" xmlns="http://www.w3.org/2000/svg" viewBox="0 0 40 40"><defs><style>.cls-1{stroke-linecap:round;}.cls-1,.cls-2{fill:none;stroke:#005da6;stroke-miterlimit:10;}</style></defs><path class="cls-2" d="m27.52,23.94v12.86c0,.95-.77,1.72-1.72,1.72H2.72c-.95,0-1.72-.77-1.72-1.72V8.26L7.89,1.37h17.92c.95,0,1.72.77,1.72,1.72v5.85"/><path class="cls-2" d="m1.48,8.36h5.47c.68,0,1.22-.55,1.22-1.22V1.66"/><rect class="cls-2" x="32.88" y="24.34" width="3.89" height="11.66" rx="1.94" ry="1.94" transform="translate(-11.01 25.44) rotate(-35.01)"/><line class="cls-2" x1="29.38" y1="22.4" x2="31.48" y2="25.4"/><circle class="cls-2" cx="25.07" cy="16.25" r="7.77"/><line class="cls-1" x1="5.08" y1="13.74" x2="14.26" y2="13.74"/><line class="cls-1" x1="5.08" y1="17.82" x2="14.26" y2="17.82"/><line class="cls-1" x1="5.08" y1="21.88" x2="14.26" y2="21.88"/><line class="cls-1" x1="5.08" y1="25.82" x2="17.5" y2="25.82"/><line class="cls-1" x1="5.08" y1="29.88" x2="23.5" y2="29.88"/></svg>