<?xml version="1.0" encoding="UTF-8"?><svg id="Layer_1" xmlns="http://www.w3.org/2000/svg" viewBox="0 0 40 40"><defs><style>.cls-1{fill:none;stroke:#0055b8;stroke-miterlimit:10;}</style></defs><path class="cls-1" d="m20.31,27.25c1.17,0,1.95.23,2.48.35.37-.31.35-1.06.35-1.06-.65-.12-2.13-.97-2.13-2.84,1.12,1,3.05.96,4.06.47,1.55-.75,2.33-2.02,2.33-3.81,0-3.48-6.3-5.94-7.09-8.36-.79,2.43-7.09,4.88-7.09,8.36,0,1.79.78,3.06,2.33,3.81,1.01.49,2.94.53,4.06-.47,0,1.87-1.48,2.71-2.13,2.84,0,0-.01.75.35,1.06.53-.12,1.31-.35,2.48-.35Z"/><path class="cls-1" d="m30.29,34.44V3.49c0-1.38-1.12-2.49-2.49-2.49h-14.97c-1.38,0-2.49,1.12-2.49,2.49v2.49"/><path class="cls-1" d="m10.33,33.18v3.33c0,1.38,1.12,2.49,2.49,2.49h14.97c1.38,0,2.49-1.12,2.49-2.49v-4.17"/><polyline class="cls-1" points="30.29 33.18 10.33 33.18 10.33 5.99 30.29 5.99"/><line class="cls-1" x1="17.81" y1="35.67" x2="22.8" y2="35.67"/></svg>