<?xml version="1.0" encoding="UTF-8"?><svg id="Layer_1" xmlns="http://www.w3.org/2000/svg" viewBox="0 0 40 40"><defs><style>.cls-1,.cls-2{fill:none;stroke:#0055b8;stroke-linejoin:round;}.cls-3{fill:#0055b8;}.cls-2{stroke-linecap:square;}</style></defs><path class="cls-1" d="m5.49,38.17c.65,0,1.25.32,1.62.83.37-.51.97-.83,1.62-.83s1.25.32,1.62.83h0c.37-.51.97-.83,1.62-.83s1.25.32,1.62.83h0c.37-.51.97-.83,1.62-.83s1.25.32,1.62.83h0c.37-.51.97-.83,1.61-.83s1.24.32,1.62.82h.01c.37-.51.97-.82,1.61-.82s1.24.32,1.61.82h.01c.37-.51.97-.82,1.61-.82s1.24.31,1.61.82h.02c.37-.5.97-.82,1.61-.82s1.24.31,1.61.82h.02c.37-.5.97-.82,1.61-.82s1.24.31,1.61.81h.03c.37-.5.97-.81,1.61-.81.5,0,.97.19,1.33.51V1.14c-.36.32-.83.51-1.33.51-.57,0-1.1-.24-1.48-.65h-.29c-.38.41-.91.65-1.48.65s-1.1-.24-1.47-.65h-.29c-.38.41-.91.65-1.47.65s-1.1-.24-1.47-.65h-.3c-.38.41-.91.65-1.47.65s-1.1-.24-1.47-.65h-.3c-.38.41-.91.65-1.47.65s-1.09-.24-1.47-.65h-.3c-.38.41-.91.65-1.47.65s-1.09-.24-1.46-.65h-.31c-.38.41-.91.65-1.47.65s-1.09-.24-1.46-.64h-.31c-.37.4-.9.64-1.46.64s-1.09-.24-1.46-.64h-.32c-.38.4-.9.64-1.46.64s-1.09-.24-1.46-.64h-.32c-.71.76-2.02.82-2.79.13v37.54c.36-.32.83-.51,1.33-.51"/><path class="cls-1" d="m7.77,16.71h4.96v-3.27h-4.96v3.27Z"/><path class="cls-1" d="m17.29,16.71h4.97v-3.27h-4.97v3.27Z"/><path class="cls-1" d="m17.29,24.74h4.97v-3.27h-4.97v3.27Z"/><path class="cls-1" d="m26.58,24.79h4.96v-3.27h-4.96v3.27Z"/><path class="cls-1" d="m26.58,32.78h4.96v-3.27h-4.96v3.27Z"/><path class="cls-1" d="m8.38,32.78h4.96v-3.27h-4.96v3.27Z"/><polyline class="cls-2" points="7.16 22.18 9.99 21.28 8.31 25.17 13.47 21.89 11.71 25.44 14.58 24.35"/><polyline class="cls-2" points="25.35 14.03 28.18 13.13 26.5 17.02 31.66 13.75 29.9 17.29 32.77 16.2"/><polyline class="cls-2" points="16.42 30.42 19.25 29.52 17.57 33.41 22.73 30.13 20.97 33.68 23.83 32.59"/><path class="cls-3" d="m8.17,9.4v-4.23h.72v4.23h-.72Z"/><path class="cls-3" d="m13.22,9.48l-2.65-2.79v2.71h-.72v-4.29l.12-.02,2.61,2.75v-2.67h.72v4.29l-.08.02Z"/><path class="cls-3" d="m15.23,9.47c-.48,0-.96-.17-1.33-.41l.25-.65c.33.24.74.39,1.1.39.44,0,.64-.26.64-.55s-.13-.48-.8-.76c-.74-.31-1-.69-1-1.2,0-.61.51-1.18,1.39-1.18.41,0,.81.14,1.06.31l-.23.63c-.22-.16-.56-.3-.85-.3-.44,0-.65.24-.65.52s.21.45.73.68c.84.36,1.08.7,1.08,1.26,0,.68-.53,1.26-1.4,1.26Z"/><path class="cls-3" d="m19.06,5.83v3.57h-.72v-3.57h-1.34v-.66h3.4v.66h-1.34Z"/><path class="cls-3" d="m23.39,9.4l-.41-.97h-1.67l-.41.97h-.74l1.95-4.29h.1l1.94,4.29h-.76Zm-1.25-2.95l-.6,1.41h1.2l-.6-1.41Z"/><path class="cls-3" d="m27.96,9.48l-2.65-2.79v2.71h-.72v-4.29l.12-.02,2.61,2.75v-2.67h.72v4.29l-.08.02Z"/><path class="cls-3" d="m30.71,5.83v3.57h-.72v-3.57h-1.34v-.66h3.4v.66h-1.34Z"/></svg>