<?xml version="1.0" encoding="UTF-8"?><svg id="Layer_1" xmlns="http://www.w3.org/2000/svg" viewBox="0 0 40 40"><defs><style>.cls-1{fill:none;stroke:#0055b8;stroke-miterlimit:10;}</style></defs><path class="cls-1" d="m15.44,34.62c.24-.24.49-.63,1.25-.63h8.76c.7,0,4.52-3.84,5.01-4.38.47-.52,2.55-3.65,3.13-5.01-.36-.49-1.34-.89-2.5-.63-1.11.26-1.76,1.05-2.5,2.5l-2.87,1.49"/><path class="cls-1" d="m19.2,30.24h5.01c2.5,0,2.5-3.13,0-3.13h-3.31c-.52,0-1.5-1.25-2.33-1.25h-3.13c-.85,0-1.9.69-2.5,1.25-.94.94-2.5,2.5-2.5,2.5"/><rect class="cls-1" x="9.16" y="28.37" width="4.42" height="10.62" transform="translate(-20.48 17.91) rotate(-45)"/><line class="cls-1" x1="9.19" y1="31.49" x2="10.44" y2="32.74"/><circle class="cls-1" cx="19.82" cy="12.45" r="11.45"/><polygon class="cls-1" points="18.73 14.08 20.37 14.08 22.55 16.26 22.55 17.35 20.91 18.99 20.91 19.53 20.37 20.08 20.37 21.17 19.82 21.72 18.73 20.63 18.73 17.35 17.64 16.26 17.64 15.17 18.73 14.08"/><polyline class="cls-1" points="11.1 4.82 12.74 6.45 12.74 8.09 13.28 8.63 13.28 9.18 12.74 9.72 12.74 11.36 13.28 11.9 14.37 11.9 16.01 14.08 16.55 14.08 17.1 13.54 17.1 12.99 18.19 11.9 19.28 11.9 19.28 11.36 20.37 10.27 21.46 10.27 21.46 8.09 19.82 6.45 18.73 7.54 17.1 5.91 17.64 5.36 17.64 4.27 17.1 3.73 12.74 3.73"/><polyline class="cls-1" points="30.73 15.17 30.18 14.63 28 14.63 28 12.45 29.64 10.81 31.27 10.81"/></svg>