<?xml version="1.0" encoding="UTF-8"?><svg id="Layer_1" xmlns="http://www.w3.org/2000/svg" viewBox="0 0 40 40"><defs><style>.cls-1{fill:none;stroke:#0055b8;stroke-linecap:round;stroke-linejoin:round;}</style></defs><g id="g1549"><path id="path1540" class="cls-1" d="m21.94,27.2l-.85,3.39,3.39-.85,13.99-13.99c.7-.7.7-1.84,0-2.54s-1.84-.7-2.54,0l-13.99,13.99Z"/><path id="path1545" class="cls-1" d="m32.96,16.18l2.54,2.54"/></g><path id="rect1553" class="cls-1" d="m35.42,18.81v12.93c0,.99-.8,1.79-1.79,1.79H3.79c-.99,0-1.79-.8-1.79-1.79V7.87c0-.99.8-1.79,1.79-1.79h29.84c.99,0,1.79.8,1.79,1.79v5.85"/><path id="path1561" class="cls-1" d="m18.71,30.55h-2.98"/><path id="path1565" class="cls-1" d="m4.39,8.47h1.19"/><path id="path1567" class="cls-1" d="m7.97,8.47h1.19"/><path id="path1569" class="cls-1" d="m11.55,8.47h1.19"/><path id="path1571" class="cls-1" d="m2,10.86h33.42"/><path id="path1577" class="cls-1" d="m18.71,15.04h3.58"/><path id="path1579" class="cls-1" d="m18.71,18.62h7.76"/><path id="path1581" class="cls-1" d="m18.71,22.79h4.18"/><path id="path1589" class="cls-1" d="m6.18,30.55h7.16"/><path id="path1659" class="cls-1" d="m6.18,27.57h2.39"/><path id="path1591" class="cls-1" d="m10.95,27.57h5.97"/><path id="path1653" class="cls-1" d="m30.05,15.04h-5.37"/><path id="path1704" class="cls-1" d="m15.22,18.72l-4.52,2.61-4.52,2.61v-10.44l4.52,2.61,4.52,2.61Z"/></svg>