<?xml version="1.0" encoding="UTF-8"?><svg id="Layer_1" xmlns="http://www.w3.org/2000/svg" viewBox="0 0 40 40"><defs><style>.cls-1{fill:#0055b8;}</style></defs><path class="cls-1" d="m3.03,20C3.03,9.97,11.3,1.82,21.46,1.82h.14v-.82h-.14C10.84,1,2.21,9.52,2.21,20s8.63,19,19.25,19h.14v-.82h-.14c-10.16,0-18.42-8.16-18.42-18.18"/><path class="cls-1" d="m21.46,3.87C12.45,3.87,5.12,11.11,5.12,20c0,2.18.43,4.29,1.28,6.28l.06.13.44-.18-.06-.13c-.83-1.93-1.25-3.98-1.25-6.09,0-8.63,7.12-15.66,15.86-15.66s15.86,7.02,15.86,15.66v.14h.47v-.14c0-8.89-7.33-16.13-16.34-16.13"/><path class="cls-1" d="m21.46,5.16c-8.29,0-15.03,6.66-15.03,14.84s6.74,14.84,15.03,14.84h.14v-.47h-.14c-8.03,0-14.56-6.45-14.56-14.37s6.53-14.37,14.56-14.37,14.56,6.45,14.56,14.37v.14h.47v-.14c0-8.18-6.74-14.84-15.03-14.84"/><path class="cls-1" d="m21.46,6.42h-.14v.82h.14c7.13,0,12.93,5.72,12.93,12.76s-5.8,12.76-12.93,12.76h-.14v.82h.14c7.58,0,13.76-6.09,13.76-13.58s-6.17-13.58-13.76-13.58"/><path class="cls-1" d="m20.22,8.54c3.1-.33,6.15.56,8.57,2.49,2.43,1.93,3.95,4.69,4.28,7.75.33,3.06-.57,6.07-2.53,8.46-1.96,2.4-4.75,3.89-7.85,4.22l-.14.02.05.47h.14c3.23-.35,6.13-1.91,8.17-4.41,2.04-2.49,2.97-5.62,2.63-8.81-.34-3.19-1.92-6.05-4.45-8.06-2.53-2.01-5.69-2.94-8.92-2.59-6.66.7-11.51,6.62-10.8,13.2l.02.14.47-.05-.02-.14c-.68-6.32,3.97-12.01,10.38-12.68"/><path class="cls-1" d="m15.59,28.91c1.76,1.13,3.78,1.72,5.85,1.72.75,0,1.51-.08,2.25-.23,2.81-.59,5.23-2.22,6.79-4.6l.08-.12-.4-.26-.08.12c-1.5,2.27-3.81,3.84-6.5,4.4-2.69.56-5.44.06-7.75-1.42-2.3-1.48-3.89-3.76-4.46-6.41-.57-2.66-.06-5.37,1.44-7.64,1.5-2.28,3.81-3.84,6.5-4.4,2.69-.56,5.44-.06,7.74,1.42l.12.08.26-.39-.12-.08c-2.41-1.55-5.29-2.08-8.1-1.49-2.81.59-5.23,2.22-6.79,4.6-1.57,2.38-2.1,5.22-1.51,8,.6,2.78,2.25,5.16,4.66,6.71"/><path class="cls-1" d="m21.46,29.22c2.5,0,4.85-.96,6.61-2.7,3.64-3.6,3.64-9.45,0-13.05-1.76-1.74-4.11-2.7-6.61-2.7s-4.85.96-6.61,2.7l-.1.1.33.33.1-.1c1.67-1.65,3.9-2.56,6.27-2.56s4.6.91,6.27,2.56c3.46,3.41,3.46,8.97,0,12.39-1.68,1.65-3.9,2.57-6.27,2.57s-4.6-.91-6.27-2.57l-.1-.1-.33.33.1.1c1.76,1.74,4.11,2.7,6.61,2.7"/><path class="cls-1" d="m13.51,20c0,4.32,3.56,7.84,7.94,7.84h.14v-.82h-.14c-3.92,0-7.11-3.15-7.11-7.02s3.19-7.02,7.11-7.02h.14v-.82h-.14c-4.38,0-7.94,3.52-7.94,7.84"/><path class="cls-1" d="m27.82,20c0-3.47-2.86-6.29-6.37-6.29s-6.37,2.82-6.37,6.29v.14h.47v-.14c0-3.21,2.64-5.82,5.89-5.82s5.89,2.61,5.89,5.82-2.64,5.82-5.89,5.82h-.14v.47h.14c3.51,0,6.37-2.82,6.37-6.29"/><path class="cls-1" d="m25.1,17.33l.09.11.38-.28-.08-.11c-.8-1.06-1.97-1.75-3.29-1.95-1.33-.2-2.65.13-3.72.92-1.08.79-1.78,1.94-1.97,3.25-.2,1.31.13,2.61.93,3.67.8,1.06,1.97,1.75,3.29,1.95.25.04.5.05.75.05,1.07,0,2.1-.34,2.97-.97l.12-.08-.28-.38-.11.08c-.97.71-2.17,1.01-3.37.83-1.2-.18-2.26-.8-2.98-1.76-.72-.96-1.02-2.14-.84-3.33.18-1.18.81-2.23,1.78-2.94.97-.71,2.17-1.01,3.37-.83,1.2.18,2.26.8,2.98,1.76"/><path class="cls-1" d="m21.46,16.65h.14v-.47h-.14c-1.03,0-2,.4-2.73,1.12-.73.72-1.13,1.68-1.13,2.7s.4,1.98,1.13,2.7l.1.1.34-.33-.1-.1c-1.32-1.31-1.32-3.43,0-4.74.64-.63,1.49-.98,2.4-.98"/><path class="cls-1" d="m24.46,20c0-1.63-1.35-2.96-3-2.96h-.14v.82h.14c1.2,0,2.17.96,2.17,2.14s-.97,2.14-2.17,2.14h-.14v.82h.14c1.65,0,3-1.33,3-2.96"/><path class="cls-1" d="m19.97,20c0-.81.67-1.47,1.49-1.47s1.49.66,1.49,1.47-.67,1.47-1.49,1.47h-.14v.42h.14c1.05,0,1.91-.85,1.91-1.89s-.86-1.89-1.91-1.89-1.91.85-1.91,1.89v.14h.42v-.14Z"/><path class="cls-1" d="m21.46,21.13c.63,0,1.15-.51,1.15-1.13v-.14h-.42v.14c0,.39-.32.71-.72.71s-.72-.32-.72-.71v-.14h-.42v.14c0,.62.51,1.13,1.15,1.13"/><path class="cls-1" d="m21.9,20.14v-.14c0-.24-.2-.44-.45-.44s-.45.2-.45.44v.14h.42v-.14s.01-.03.05,0v.14h.42Z"/><path class="cls-1" d="m33.59,31.96c-3.24,3.2-7.56,4.97-12.15,4.97s-8.9-1.76-12.15-4.97c-3.24-3.2-5.03-7.46-5.03-11.99s1.78-8.79,5.03-11.99c3.24-3.2,7.56-4.97,12.15-4.97s8.91,1.76,12.15,4.97l.1.1.33-.33-.1-.1c-3.33-3.29-7.77-5.1-12.48-5.1s-9.15,1.81-12.48,5.1c-3.33,3.29-5.16,7.66-5.16,12.32s1.83,9.03,5.16,12.32c3.33,3.29,7.77,5.1,12.48,5.1s9.15-1.81,12.48-5.1l.1-.1-.33-.33-.1.1Z"/></svg>