<?xml version="1.0" encoding="UTF-8"?><svg id="Layer_1" xmlns="http://www.w3.org/2000/svg" viewBox="0 0 40 40"><defs><style>.cls-1{fill:none;stroke:#0055b8;stroke-miterlimit:10;}</style></defs><path class="cls-1" d="m23.93,22.97h-1.66c-.92,0-1.66-.74-1.66-1.66v-5.82c0-.92.74-1.66,1.66-1.66h10.8c.92,0,1.66.74,1.66,1.66v5.82c0,.92-.74,1.66-1.66,1.66h-2.49m-14.95,0H4.82c-.92,0-1.66-.74-1.66-1.66v-5.82c0-.92.74-1.66,1.66-1.66h10.8c.92,0,1.66.74,1.66,1.66v5.82c0,.92-.74,1.66-1.66,1.66Zm17.44-12.46h-10.8c-.92,0-1.66-.74-1.66-1.66V3.03c0-.92.74-1.66,1.66-1.66h10.8c.92,0,1.66.74,1.66,1.66v5.81c0,.92-.74,1.66-1.66,1.66Zm-17.44,0H4.82c-.92,0-1.66-.74-1.66-1.66V3.03c0-.92.74-1.66,1.66-1.66h10.8c.92,0,1.66.74,1.66,1.66v5.81c0,.92-.74,1.66-1.66,1.66Zm19.5,17.45c-.81-.34-6.21-1.66-6.21-1.66v-5.81c0-.92-.74-1.66-1.66-1.66s-1.66.74-1.66,1.66v10.8h-.83s-2.26-2.34-3.32-2.49c-1.06-.16-2.56,1.07-.83,3.32.47.61,4.7,6.2,4.98,6.65.01.02,9.97,0,9.97,0,.02,0,.83-1.61.83-3.32v-5.81c0-.84-.46-1.32-1.27-1.66Z"/></svg>